<svg xmlns="http://www.w3.org/2000/svg" viewBox="0 0 64 64" fill="none">
  <!-- Background -->
  <rect width="64" height="64" fill="#0a0a0a" rx="12"/>
  
  <!-- Bridge roadway -->
  <line x1="8" y1="45" x2="56" y2="45" stroke="white" stroke-width="3" stroke-linecap="round"/>
  
  <!-- Left tower base -->
  <rect x="16" y="35" width="6" height="10" fill="white"/>
  
  <!-- Right tower base -->
  <rect x="42" y="35" width="6" height="10" fill="white"/>
  
  <!-- Left tower A-frame -->
  <line x1="19" y1="25" x2="16" y2="35" stroke="white" stroke-width="2"/>
  <line x1="19" y1="25" x2="22" y2="35" stroke="white" stroke-width="2"/>
  <line x1="16" y1="35" x2="22" y2="35" stroke="white" stroke-width="2"/>
  
  <!-- Right tower A-frame -->
  <line x1="45" y1="25" x2="42" y2="35" stroke="white" stroke-width="2"/>
  <line x1="45" y1="25" x2="48" y2="35" stroke="white" stroke-width="2"/>
  <line x1="42" y1="35" x2="48" y2="35" stroke="white" stroke-width="2"/>
  
  <!-- Suspension cables from left tower -->
  <path d="M 19 25 Q 25 30 32 45" stroke="white" stroke-width="1.5" fill="none"/>
  <path d="M 19 25 Q 35 35 42 45" stroke="white" stroke-width="1.5" fill="none"/>
  <path d="M 19 25 Q 45 40 56 45" stroke="white" stroke-width="1.5" fill="none"/>
  
  <!-- Suspension cables from right tower -->
  <path d="M 45 25 Q 39 30 32 45" stroke="white" stroke-width="1.5" fill="none"/>
  <path d="M 45 25 Q 29 35 22 45" stroke="white" stroke-width="1.5" fill="none"/>
  <path d="M 45 25 Q 19 40 8 45" stroke="white" stroke-width="1.5" fill="none"/>
  
  <!-- Horizontal cable connecting towers -->
  <line x1="19" y1="25" x2="45" y2="25" stroke="white" stroke-width="1.5"/>
</svg>

